<?xml version="1.0" standalone="no"?>
<!DOCTYPE svg PUBLIC "-//W3C//DTD SVG 20010904//EN"
 "http://www.w3.org/TR/2001/REC-SVG-20010904/DTD/svg10.dtd">
<svg version="1.0" xmlns="http://www.w3.org/2000/svg"
 width="470.000000pt" height="470.000000pt" viewBox="0 0 470.000000 470.000000"
 preserveAspectRatio="xMidYMid meet">
<metadata>
Created by potrace 1.14, written by Peter Selinger 2001-2017
</metadata>
<g transform="translate(0.000000,470.000000) scale(0.100000,-0.100000)"
fill="#000000" stroke="none">
<path d="M790 3712 c-148 -115 -233 -300 -277 -602 -12 -89 -17 -204 -18 -504
l-2 -389 -38 -13 c-79 -27 -106 -93 -75 -184 17 -50 69 -115 99 -125 13 -4 16
-21 14 -97 -1 -88 6 -170 22 -230 6 -25 5 -26 -29 -24 -35 1 -36 0 -43 -44
-14 -90 -13 -95 32 -95 l40 0 -3 -39 c-2 -22 4 -67 13 -100 13 -46 14 -68 6
-89 -13 -32 -20 -33 -73 -6 -22 11 -44 17 -49 12 -8 -8 -13 -71 -10 -119 1
-15 12 -24 41 -33 50 -15 90 -63 110 -133 l16 -53 44 0 c42 0 45 2 45 26 0 34
19 55 61 69 28 10 34 16 34 41 0 21 14 44 50 84 49 54 60 84 40 115 -8 13 -19
10 -73 -17 l-65 -32 -21 23 c-25 27 -26 50 -4 113 19 56 24 103 11 119 -11 15
7 22 50 18 l32 -2 0 51 c1 47 2 50 15 34 7 -11 16 -38 20 -60 3 -23 10 -65 16
-92 l9 -51 62 -11 c72 -14 132 -52 167 -106 23 -34 28 -37 73 -37 38 0 67 10
141 49 85 45 95 47 112 34 11 -9 45 -26 75 -39 146 -65 170 -85 203 -171 12
-30 16 -68 14 -136 -2 -78 -7 -102 -30 -149 -17 -35 -36 -60 -50 -64 -12 -4
-69 -6 -127 -6 l-105 2 -28 -33 c-38 -42 -60 -94 -53 -123 5 -20 13 -24 44
-25 40 -1 75 -3 163 -13 119 -13 199 -9 213 9 11 16 15 16 42 2 41 -21 110
-27 131 -11 15 11 18 30 19 133 0 66 2 123 5 125 2 2 24 7 49 11 79 12 129 44
185 119 17 22 25 41 20 43 -6 2 -41 20 -80 41 -57 30 -70 42 -71 62 -2 36 22
98 59 152 26 38 43 51 90 68 32 12 129 57 216 100 215 108 302 135 463 144
l47 3 0 -53 c0 -105 32 -170 145 -289 87 -92 124 -165 121 -236 -2 -48 -11
-113 -20 -159 -2 -8 -4 -33 -4 -56 l-1 -41 -62 -11 c-141 -25 -198 -45 -242
-86 -46 -42 -48 -68 -5 -59 17 3 63 0 101 -7 62 -12 77 -12 115 2 40 14 44 14
52 0 12 -22 76 -21 119 1 32 15 35 15 60 -1 36 -23 174 -24 217 0 23 12 35 14
49 6 25 -14 104 -12 122 3 13 10 18 6 15 -14 -1 -9 44 -12 117 -8 12 0 31 10
42 21 l20 20 0 -20 c0 -18 7 -20 58 -21 61 -1 95 1 101 6 1 2 -13 37 -32 77
-37 77 -45 101 -51 158 -4 32 2 41 60 97 63 63 90 115 77 151 -3 9 -25 37 -49
62 -61 65 -86 120 -92 200 -6 96 10 175 78 381 118 358 116 442 -22 651 l-50
78 45 50 c26 28 59 77 74 108 24 50 28 68 28 153 0 89 -2 99 -30 145 -74 118
-206 146 -570 121 -135 -9 -306 -9 -360 1 -31 6 -43 14 -53 37 -21 49 -27 58
-46 69 -14 9 -22 6 -39 -15 -12 -14 -27 -34 -33 -45 -10 -17 -12 -17 -37 8
-15 15 -27 38 -27 51 0 38 41 89 100 125 l54 32 -85 0 c-97 0 -142 -12 -180
-47 l-26 -24 -31 35 c-47 54 -52 139 -9 174 43 36 179 16 211 -30 14 -19 15
-17 21 28 11 71 20 85 53 78 86 -21 131 -86 132 -191 0 -72 10 -78 67 -43 40
24 64 78 66 148 2 62 13 65 63 19 30 -27 36 -40 39 -82 1 -31 -4 -69 -16 -100
-11 -27 -19 -51 -19 -52 0 -2 9 -3 20 -3 33 0 73 25 119 75 l43 47 26 -24 c14
-13 50 -47 80 -75 30 -29 59 -53 65 -53 7 0 6 41 -4 108 -4 23 8 18 68 -34
224 -189 364 -210 459 -68 12 18 12 27 -1 64 -8 23 -15 53 -15 66 0 23 -2 24
-67 19 -65 -4 -83 -13 -83 -45 0 -9 -7 -26 -16 -38 l-15 -22 -62 42 c-62 42
-175 127 -212 161 -44 40 -203 156 -260 189 -78 45 -184 88 -260 104 -94 21
-285 12 -360 -16 -98 -37 -186 -108 -244 -194 l-26 -40 -3 57 c-2 31 -7 57
-12 57 -5 0 -37 -13 -72 -29 -34 -16 -67 -26 -73 -22 -5 4 -28 21 -50 38 -65
49 -155 95 -160 81 -2 -7 -9 -30 -15 -50 -18 -59 -35 -67 -73 -31 -40 38 -64
50 -102 53 -51 4 -54 1 -57 -42 -3 -36 -7 -43 -31 -49 -20 -5 -30 -3 -40 10
-55 80 -215 80 -232 1 -10 -43 -52 -90 -103 -112 -51 -23 -176 -36 -278 -29
-15 1 -23 10 -28 31 -13 68 -84 97 -166 69 l-32 -12 5 -81 c6 -94 8 -102 37
-179 57 -151 170 -226 309 -205 60 10 71 4 122 -66 38 -51 37 -59 -8 -52 -21
3 -57 8 -81 11 -47 7 -191 49 -285 85 -32 12 -61 20 -64 17 -3 -3 -7 -37 -9
-74 -9 -160 -14 -221 -19 -235 -5 -12 3 -17 32 -23 21 -3 72 -17 113 -31 80
-26 115 -29 153 -15 20 8 29 6 43 -11 29 -32 69 -48 124 -51 27 -1 50 -5 50
-9 0 -10 -94 -86 -189 -154 -96 -68 -141 -116 -181 -195 -51 -101 -72 -196
-73 -341 l-1 -78 -25 17 c-45 28 -124 95 -198 167 l-72 69 25 29 c13 16 25 39
25 51 6 88 -10 137 -62 192 l-29 31 4 454 c4 423 8 564 20 665 3 22 8 71 12
110 3 38 14 117 24 175 9 58 15 108 13 113 -8 13 -28 7 -63 -21z m-14 -159
c-15 -211 -19 -261 -21 -303 -2 -52 -17 -356 -20 -445 -2 -33 -3 -185 -4 -337
l-1 -276 -27 -33 -27 -32 23 -39 c13 -24 19 -44 14 -49 -13 -13 -153 -13 -166
0 -7 7 -5 22 7 50 10 21 15 48 12 59 -4 11 -9 35 -11 53 -3 19 -7 45 -10 58
-32 158 -22 746 15 916 5 22 11 54 14 70 8 44 53 162 84 222 32 62 104 163
115 163 5 0 6 -35 3 -77z m2402 -19 c41 -12 52 -19 48 -32 -10 -39 -15 -70
-21 -127 -9 -97 -15 -138 -23 -169 -8 -28 -9 -27 -31 35 -42 114 -97 160 -208
175 l-52 6 -7 -41 c-4 -22 -8 -41 -10 -41 -1 0 -15 5 -31 11 -38 15 -97 12
-133 -6 -43 -22 -83 -97 -83 -155 -1 -74 40 -122 119 -140 34 -8 37 -6 56 26
35 59 63 35 38 -32 -34 -88 -12 -134 77 -160 62 -18 77 -10 66 33 -10 41 15
24 29 -19 13 -39 18 -43 59 -51 62 -11 208 -11 379 -2 343 20 450 6 526 -70
47 -48 62 -94 57 -180 -5 -99 -49 -169 -155 -251 l-28 -22 61 -83 c34 -46 72
-106 86 -132 28 -56 36 -142 21 -227 -5 -30 -11 -64 -13 -76 -1 -11 -20 -72
-40 -135 -92 -281 -99 -316 -100 -439 0 -111 21 -165 96 -246 55 -59 58 -64
49 -96 -8 -29 -82 -108 -101 -108 -4 0 -14 -16 -23 -35 -20 -41 -15 -101 13
-166 33 -77 35 -89 12 -89 -11 0 -27 12 -37 29 l-17 29 -50 -23 c-53 -25 -99
-25 -126 -1 -15 14 -20 14 -38 1 -15 -11 -44 -14 -102 -13 -74 2 -79 4 -65 19
19 21 108 68 201 105 83 33 75 9 75 212 0 62 -1 114 -3 116 -2 1 -49 33 -104
71 -167 115 -301 220 -380 301 -50 51 -145 120 -203 147 -49 23 -80 30 -140
32 -160 7 -291 -30 -541 -151 -146 -72 -238 -114 -246 -114 -2 0 18 46 45 103
59 124 84 219 77 303 -8 110 -23 109 -41 -2 -9 -54 -21 -126 -27 -159 -15 -84
-50 -157 -93 -191 -20 -16 -36 -38 -36 -49 0 -11 -14 -45 -30 -75 -56 -103
-71 -140 -76 -184 -6 -48 4 -58 99 -103 l49 -23 -21 -29 c-25 -35 -67 -56
-148 -71 l-62 -12 -12 -51 c-7 -29 -10 -84 -6 -133 4 -76 3 -83 -15 -87 -23
-7 -66 8 -90 30 -16 14 -23 14 -80 -2 -80 -22 -195 -22 -275 0 -35 10 -63 19
-63 22 0 2 7 15 16 28 20 31 70 44 154 39 90 -4 133 9 168 52 86 104 74 307
-28 484 -17 30 -19 45 -13 120 10 120 9 242 0 265 -8 19 -9 18 -23 -8 -11 -20
-15 -58 -15 -127 0 -55 1 -103 2 -107 1 -4 1 -34 0 -66 l-1 -57 -35 14 c-66
28 -176 106 -240 171 -186 189 -214 487 -69 727 57 94 249 276 269 256 3 -3
-4 -34 -15 -69 -11 -35 -20 -67 -20 -71 0 -11 54 -10 84 2 35 13 49 -8 70
-103 6 -25 9 -26 28 -16 19 10 59 51 81 83 12 19 24 -12 21 -55 -2 -21 1 -39
6 -39 5 0 33 28 61 63 29 34 55 63 60 65 4 2 14 -17 21 -43 8 -25 18 -47 23
-47 6 0 23 21 39 48 27 46 42 63 58 64 8 0 38 -90 41 -119 1 -12 4 -21 8 -21
9 0 84 52 118 83 17 15 35 27 41 27 6 0 51 -21 102 -46 72 -36 93 -43 100 -32
7 10 5 68 -5 133 -1 6 29 11 71 13 39 2 72 7 72 11 0 5 -10 20 -21 35 -15 19
-18 31 -11 38 23 23 271 29 552 13 198 -11 488 -12 565 -2 183 25 279 108 289
250 10 165 -103 211 -444 182 -52 -4 -108 -9 -125 -10 -16 -1 -59 -6 -95 -10
-109 -13 -297 -13 -359 0 -55 11 -92 26 -137 55 -30 18 -82 -3 -90 -37 -6 -23
-7 -23 -26 -6 -27 24 -21 103 11 137 l21 23 -21 19 c-62 55 -105 174 -95 262
28 241 317 402 584 326z m199 -74 c83 -41 272 -169 322 -218 46 -45 218 -165
288 -201 46 -23 45 -23 63 34 16 52 27 65 55 65 19 0 25 -8 34 -47 10 -37 9
-49 -1 -59 -26 -24 -93 -54 -123 -54 -47 0 -122 43 -195 110 -71 66 -175 140
-196 140 -21 0 -26 -17 -15 -55 14 -53 -5 -45 -84 32 -76 74 -68 75 -96 -16
-19 -60 -43 -69 -35 -12 3 23 1 54 -5 69 -14 38 -64 87 -108 107 l-38 17 -1
69 c-1 86 1 87 135 19z m-1075 -46 c40 -26 68 -60 68 -84 0 -9 -10 -26 -22
-37 -33 -29 -52 -35 -178 -49 -68 -7 -76 -14 -52 -45 11 -13 22 -34 26 -46 7
-22 4 -23 -39 -23 -26 0 -88 14 -141 32 -100 34 -128 31 -79 -8 27 -21 28 -24
9 -24 -11 0 -53 11 -93 25 -65 22 -116 30 -163 26 -23 -2 -73 -111 -56 -123
18 -11 76 -26 118 -30 l35 -3 3 48 3 48 35 -7 c19 -3 81 -21 137 -40 97 -31
124 -31 97 1 -13 16 -10 16 153 18 32 1 57 6 57 12 0 5 -9 25 -20 43 -30 49
-26 58 19 54 64 -6 106 14 162 78 54 62 79 82 117 94 17 6 22 3 22 -11 0 -21
-30 -73 -60 -103 -21 -21 -26 -45 -10 -55 25 -15 35 -96 35 -272 0 -204 0
-204 -66 -160 -47 32 -75 86 -100 197 -28 124 -34 135 -47 85 -10 -38 -20
-112 -21 -163 -1 -19 -4 -21 -19 -13 -10 5 -37 29 -60 52 -30 31 -43 39 -46
28 -21 -58 -27 -69 -36 -69 -5 0 -10 5 -10 10 0 6 -11 3 -24 -5 -13 -9 -34
-18 -47 -20 -13 -3 -29 -12 -35 -20 -14 -19 -38 -19 -59 1 -14 15 -18 14 -42
-3 -66 -47 -65 -47 -125 10 -20 19 -38 15 -38 -7 0 -13 83 -96 95 -96 15 0 65
32 73 47 9 15 14 13 48 -16 35 -31 38 -32 50 -16 7 10 15 23 18 29 3 7 10 5
18 -6 13 -15 16 -14 33 13 24 36 32 36 47 4 15 -34 30 -27 44 20 6 21 16 41
23 43 6 2 32 -17 58 -42 57 -57 71 -59 69 -7 0 22 2 37 7 34 4 -2 7 -10 7 -17
0 -21 69 -94 111 -118 22 -12 39 -29 38 -38 -1 -8 1 -37 6 -63 4 -26 5 -50 2
-54 -5 -5 -77 53 -162 129 -37 34 -43 35 -55 3 -12 -32 -37 -32 -71 1 -35 33
-56 26 -65 -20 -3 -20 -10 -36 -14 -36 -5 0 -24 14 -42 30 -37 34 -46 37 -55
13 -4 -11 5 -26 30 -47 35 -29 50 -66 27 -66 -5 0 -10 -8 -10 -17 -1 -12 -18
1 -53 40 -55 62 -65 63 -81 10 -12 -39 -43 -28 -65 22 -21 47 -51 61 -51 25 0
-33 25 -73 72 -115 l43 -39 14 37 14 38 32 -36 c56 -60 105 -41 152 62 13 29
31 53 38 53 8 0 27 -14 44 -32 l29 -31 19 31 19 31 40 -26 c21 -14 52 -38 68
-52 34 -31 73 -110 71 -143 -2 -21 -6 -23 -46 -21 -32 2 -59 13 -102 43 -66
45 -82 49 -90 19 l-6 -21 -36 22 c-38 23 -52 19 -56 -17 -1 -7 -3 -17 -4 -23
-1 -5 -3 -22 -4 -37 l-1 -26 -26 24 c-14 13 -33 36 -42 52 -9 15 -21 27 -27
27 -6 0 -24 -20 -39 -45 -33 -52 -44 -49 -73 21 -10 24 -23 44 -30 44 -7 0
-28 -14 -48 -31 -20 -18 -37 -30 -39 -28 -12 14 -26 51 -26 68 0 31 -15 26
-54 -21 -20 -24 -36 -37 -36 -31 0 7 -12 19 -28 27 -27 14 -55 14 -137 1 -37
-7 -42 -4 -77 33 -37 40 -37 40 -75 27 -43 -15 -61 -13 -158 16 -38 12 -76 23
-84 25 -10 3 -11 14 -6 42 4 20 8 46 9 57 0 11 9 23 18 27 16 6 102 3 138 -5
38 -9 95 -20 114 -22 12 -1 23 -3 26 -4 3 0 6 -16 6 -33 2 -68 -6 -63 119 -63
128 0 129 0 100 68 -19 46 -19 67 1 67 10 0 -5 25 -43 73 -32 39 -74 93 -93
118 -34 46 -36 47 -62 33 -109 -56 -232 -4 -298 127 -24 46 -50 155 -50 210 0
33 3 37 31 43 17 3 38 6 45 6 12 0 43 -55 58 -105 6 -22 19 -23 181 -11 93 7
122 14 170 36 63 29 94 65 108 122 16 62 143 54 170 -10 7 -17 18 -28 27 -26
8 2 26 5 40 8 13 3 39 7 57 8 31 2 33 4 33 40 0 32 3 38 21 38 12 0 41 -19 65
-43 41 -42 44 -43 71 -29 44 23 63 43 63 69 0 21 3 23 23 17 12 -4 38 -17 59
-30z m245 -197 c4 -103 36 -209 80 -259 12 -14 13 -22 0 -65 -17 -57 -14 -101
12 -151 23 -44 66 -87 75 -74 3 5 8 27 12 48 3 22 8 42 10 45 2 4 43 -7 91
-24 80 -27 102 -30 233 -32 80 -1 174 1 210 6 290 36 554 30 614 -14 42 -31
21 -183 -32 -237 -28 -28 -115 -55 -215 -67 -28 -3 -261 -7 -517 -9 -256 -2
-486 -3 -512 -4 -53 -1 -104 21 -111 47 -15 55 -15 73 -1 102 16 32 15 73 -5
138 -10 34 -6 43 18 43 14 0 16 20 19 138 7 272 7 265 -16 313 -12 25 -22 50
-22 56 0 12 39 63 48 63 4 0 8 -28 9 -63z m-857 -117 c0 -27 -2 -29 -24 -20
-13 5 -26 7 -29 4 -2 -3 -2 7 0 21 4 18 12 25 29 25 20 0 24 -5 24 -30z m-430
-328 c84 -32 94 -42 33 -31 -71 13 -183 50 -178 59 8 13 75 0 145 -28z m315
-99 c11 -37 11 -43 -4 -47 -13 -4 -69 -2 -113 3 -3 1 -6 21 -6 46 1 49 8 54
72 45 36 -5 40 -9 51 -47z m165 -285 c0 -24 6 -23 50 12 21 17 44 30 53 30 8
0 27 -28 43 -65 16 -35 31 -65 34 -65 3 0 23 26 44 57 l40 57 57 -64 57 -64
11 40 c6 21 11 48 11 59 0 36 15 49 40 35 18 -9 28 -9 46 1 21 11 32 8 94 -24
53 -27 79 -35 107 -32 34 3 40 0 61 -30 12 -19 22 -37 22 -40 0 -3 -22 -5 -49
-5 -28 0 -53 -5 -56 -11 -4 -6 -7 -37 -6 -69 l1 -59 -63 36 c-34 19 -67 39
-73 44 -8 7 -33 -6 -78 -40 l-65 -50 -19 27 c-11 15 -27 50 -37 77 -10 28 -21
53 -25 58 -8 9 -29 -15 -62 -71 -27 -46 -39 -44 -52 11 -3 15 -10 27 -15 27
-5 0 -28 -22 -51 -50 -23 -27 -47 -50 -52 -50 -5 0 -8 18 -6 40 1 22 0 42 -3
45 -3 3 -32 -22 -65 -55 -32 -33 -62 -56 -66 -52 -4 4 -11 25 -16 47 -8 40 -8
40 -55 40 -46 0 -47 1 -47 30 1 17 16 59 34 95 32 62 34 63 47 42 19 -30 30
-27 59 12 25 34 25 34 37 13 7 -12 12 -30 13 -39z m-1232 -240 c20 -20 14 -45
-17 -70 -36 -31 -27 -50 32 -72 80 -31 188 -25 230 12 23 20 22 54 -4 75 -23
20 -22 52 1 53 52 2 104 -61 94 -114 -14 -72 -100 -112 -231 -109 -84 2 -92 4
-124 32 -19 17 -44 37 -57 45 -36 25 -33 97 6 143 17 20 53 22 70 5z m116
-272 c42 -25 36 -40 -10 -27 -16 4 -39 7 -51 6 -13 -1 -23 1 -24 4 0 3 -2 14
-4 24 -5 25 41 22 89 -7z m281 -102 c135 -101 198 -167 244 -255 46 -86 106
-176 148 -220 l34 -36 -45 -30 c-24 -16 -70 -38 -101 -47 l-55 -18 -33 32
c-59 59 -189 136 -208 124 -16 -10 -32 31 -37 94 -6 82 -16 112 -42 119 -23 6
-24 14 -10 63 16 52 13 183 -4 225 -8 19 -13 35 -10 35 3 0 56 -39 119 -86z
m-263 28 c21 -2 52 -47 43 -62 -4 -7 -11 -8 -18 -2 -7 6 -33 13 -59 16 -80 11
-101 28 -56 45 20 7 35 8 90 3z m26 -110 c12 -7 22 -19 22 -27 0 -9 -8 -12
-22 -9 -13 2 -45 6 -72 9 -49 5 -68 18 -60 40 6 14 99 5 132 -13z m0 -98 c27
-18 17 -32 -21 -28 -12 1 -34 3 -49 3 -30 1 -50 38 -28 51 15 9 63 -3 98 -26z
m52 -107 c0 -43 0 -44 -35 -45 -49 -2 -54 -7 -46 -44 9 -40 4 -87 -15 -152 -8
-27 -14 -55 -14 -61 0 -6 21 -32 46 -58 l45 -47 39 20 c52 27 58 25 29 -6 -23
-25 -84 -62 -104 -62 -20 -1 -15 -19 10 -32 36 -19 31 -30 -14 -30 -39 0 -40
-1 -45 -40 -7 -46 -18 -53 -24 -14 -5 41 -27 77 -70 115 -21 19 -47 48 -57 64
-10 17 -12 24 -5 18 55 -50 148 67 120 151 -6 19 -16 36 -22 38 -8 3 -8 10 1
25 6 12 11 47 11 78 l0 56 -40 -5 c-46 -6 -51 6 -15 30 42 27 97 43 153 44
l52 0 0 -43z m2291 -38 c80 -21 130 -59 339 -255 12 -12 12 -18 -5 -47 -15
-24 -20 -50 -20 -110 0 -88 7 -98 64 -92 44 5 71 -2 71 -19 0 -7 -27 -40 -60
-74 -33 -34 -63 -74 -66 -88 -6 -22 -1 -62 20 -184 17 -92 17 -93 -12 -86 -15
4 -101 9 -192 12 -91 2 -185 7 -210 10 l-45 6 27 14 c15 8 58 17 95 20 105 10
117 19 144 116 16 60 23 111 23 183 1 92 -1 104 -27 151 -16 28 -60 87 -98
130 -39 43 -82 98 -96 121 -25 42 -50 124 -47 153 0 8 2 25 2 37 2 23 13 24
93 2z m454 -343 c114 -76 213 -142 230 -152 16 -9 19 -25 20 -127 0 -65 -1
-121 -4 -126 -4 -4 -33 -18 -66 -30 -79 -30 -164 -75 -199 -107 -15 -14 -29
-24 -32 -21 -13 13 -32 134 -27 176 10 86 35 125 89 140 25 6 29 13 30 44 1
20 4 43 7 52 9 22 -21 33 -80 28 -46 -3 -52 -2 -59 19 -15 49 4 138 30 138 6
0 34 -15 61 -34z"/>
</g>
</svg>
